<svg xmlns="http://www.w3.org/2000/svg" width="128" height="128" viewBox="0 0 128 128" role="img" aria-label="DDE Coding Plan Quota Helper icon">
  <defs>
    <linearGradient id="tile" x1="22" y1="18" x2="106" y2="110" gradientUnits="userSpaceOnUse">
      <stop offset="0" stop-color="#1E293B"/>
      <stop offset="0.54" stop-color="#111827"/>
      <stop offset="1" stop-color="#0A0F1F"/>
    </linearGradient>
    <linearGradient id="face" x1="38" y1="30" x2="90" y2="96" gradientUnits="userSpaceOnUse">
      <stop offset="0" stop-color="#F8FAFC"/>
      <stop offset="1" stop-color="#D7E0EA"/>
    </linearGradient>
  </defs>

  <rect width="128" height="128" rx="28" fill="url(#tile)"/>
  <circle cx="64" cy="64" r="48" fill="none" stroke="#243244" stroke-width="10"/>
  <path d="M64 16a48 48 0 0 1 45.6 33" fill="none" stroke="#4FD1C5" stroke-width="10" stroke-linecap="round"/>
  <path d="M111 72a48 48 0 0 1-34 38" fill="none" stroke="#FFB020" stroke-width="10" stroke-linecap="round"/>
  <path d="M48 109a48 48 0 0 1-31-37" fill="none" stroke="#7C9CFF" stroke-width="10" stroke-linecap="round"/>

  <rect x="34" y="39" width="60" height="60" rx="16" fill="#020617" opacity="0.28"/>
  <g>
    <rect x="34" y="34" width="60" height="60" rx="16" fill="url(#face)"/>
    <path d="M55.4 52.4 45.8 64l9.6 11.6" fill="none" stroke="#182235" stroke-width="7" stroke-linecap="round" stroke-linejoin="round"/>
    <path d="M72.6 52.4 82.2 64l-9.6 11.6" fill="none" stroke="#182235" stroke-width="7" stroke-linecap="round" stroke-linejoin="round"/>
    <path d="M65.8 50.4 61.8 77.6" fill="none" stroke="#4B5563" stroke-width="6" stroke-linecap="round"/>
  </g>
</svg>
